<?xml version="1.0" encoding="UTF-8" standalone="no" ?>
<!DOCTYPE svg PUBLIC "-//W3C//DTD SVG 1.1//EN" "http://www.w3.org/Graphics/SVG/1.1/DTD/svg11.dtd">
<svg xmlns="http://www.w3.org/2000/svg" xmlns:xlink="http://www.w3.org/1999/xlink" version="1.1" width="195.2499780273438" height="81.456" xml:space="preserve">
<desc>Created with Fabric.js 1.6.0-rc.1</desc>
<defs></defs>
  <g transform="translate(138.03 58.6) scale(0.6 0.5)">
   <text font-family="Ikaros" font-size="40" font-weight="normal" style="stroke: none; stroke-width: 1; stroke-dasharray: none; stroke-linecap: butt; stroke-linejoin: miter; stroke-miterlimit: 10; fill: #e01de0; fill-rule: nonzero; opacity: 1;" ><tspan x="-79.2" y="8.98" style="stroke: none; stroke-width: 0; stroke-dasharray: none; stroke-linecap: butt; stroke-linejoin: miter; stroke-miterlimit: 4; fill: #e01de0; fill-rule: ; opacity: 1;">W</tspan><tspan x="-37.24" y="8.98" style="stroke: none; stroke-width: 0; stroke-dasharray: none; stroke-linecap: butt; stroke-linejoin: miter; stroke-miterlimit: 4; fill: #e01de0; fill-rule: ; opacity: 1;">e</tspan><tspan x="-15" y="8.98" style="stroke: none; stroke-width: 0; stroke-dasharray: none; stroke-linecap: butt; stroke-linejoin: miter; stroke-miterlimit: 4; fill: #e01de0; fill-rule: ; opacity: 1;">d</tspan><tspan x="7.2" y="8.98" style="stroke: none; stroke-width: 0; stroke-dasharray: none; stroke-linecap: butt; stroke-linejoin: miter; stroke-miterlimit: 4; fill: #e01de0; fill-rule: ; opacity: 1;">d</tspan><tspan x="29.4" y="8.98" style="stroke: none; stroke-width: 0; stroke-dasharray: none; stroke-linecap: butt; stroke-linejoin: miter; stroke-miterlimit: 4; fill: #e01de0; fill-rule: ; opacity: 1;">i</tspan><tspan x="35.32" y="8.98" style="stroke: none; stroke-width: 0; stroke-dasharray: none; stroke-linecap: butt; stroke-linejoin: miter; stroke-miterlimit: 4; fill: #e01de0; fill-rule: ; opacity: 1;">n</tspan><tspan x="56.96" y="8.98" style="stroke: none; stroke-width: 0; stroke-dasharray: none; stroke-linecap: butt; stroke-linejoin: miter; stroke-miterlimit: 4; fill: #e01de0; fill-rule: ; opacity: 1;">g</tspan></text>
 </g>
<g style="stroke: none; stroke-width: 1; stroke-dasharray: none; stroke-linecap: butt; stroke-linejoin: miter; stroke-miterlimit: 10; fill: none; fill-rule: nonzero; opacity: 1;" transform="translate(60.61000000000002 10) scale(0.23 0.23)" >
  <path d="M 95.589 158.588 c -3.705 0.513 -7.926 0.968 -12.472 1.318 c -2.213 0.171 -4.503 0.317 -6.847 0.435 c -0.17 -0.322 -0.359 -0.633 -0.571 -0.926 l 0.347 -0.046 l -0.722 -0.531 l 0.234 -0.063 l -6.24 -4.476 c 4.417 0.685 9.134 1.343 13.799 1.91 c 4.78 0.583 9.505 1.071 13.799 1.397 L 95.589 158.588 z" style="stroke: none; stroke-width: 1; stroke-dasharray: none; stroke-linecap: butt; stroke-linejoin: miter; stroke-miterlimit: 10; fill: rgb(0,0,0); fill-rule: evenodd; opacity: 1;" transform=" matrix(1 0 0 1 0 0) " stroke-linecap="round" />
  <path d="M 103.775 62.026 c 3.872 0.214 6.856 1.52 10.728 1.733 c 0.301 -5.464 0.603 -10.928 0.904 -16.392 c -3.872 -0.213 -7.743 -0.427 -11.615 -0.641 C 103.49 52.191 103.053 55.811 103.775 62.026 z" style="stroke: none; stroke-width: 1; stroke-dasharray: none; stroke-linecap: butt; stroke-linejoin: miter; stroke-miterlimit: 10; fill: #E7B791; fill-rule: evenodd; opacity: 1;" transform=" matrix(1 0 0 1 0 0) " stroke-linecap="round" />
  <path d="M 115.17 94.648 l -9.58 -19.731 c -1.41 -5.335 -2.205 -10.397 -2.18 -17.438 c 3.837 -0.408 7.709 0.793 11.352 -0.84 c 2.967 0.615 7.409 6.731 8.264 12.629 l 3.676 22.2 L 115.17 94.648 z" style="stroke: none; stroke-width: 1; stroke-dasharray: none; stroke-linecap: butt; stroke-linejoin: miter; stroke-miterlimit: 10; fill: #FFD8B8; fill-rule: evenodd; opacity: 1;" transform=" matrix(1 0 0 1 0 0) " stroke-linecap="round" />
  <ellipse cx="99.85199999999999" cy="15.857" rx="15.362" ry="15.517" style="stroke: none; stroke-width: 1; stroke-dasharray: none; stroke-linecap: butt; stroke-linejoin: miter; stroke-miterlimit: 10; fill: #91613A; fill-rule: evenodd; opacity: 1;" transform=" matrix(0.2434 -0.9699 0.9699 0.2434 60.172 108.8469) "/>
  <path d="M 97.08 27.486 c -0.015 0.048 -0.034 0.095 -0.056 0.138 c 0.109 0.063 0.206 0.152 0.278 0.266 c 0.246 0.381 0.136 0.889 -0.245 1.134 c -0.042 0.027 -0.086 0.051 -0.131 0.069 c 0.043 0.118 0.06 0.249 0.043 0.383 c -0.057 0.449 -0.467 0.768 -0.917 0.711 c -0.05 -0.006 -0.099 -0.017 -0.146 -0.031 c -0.043 0.118 -0.114 0.229 -0.213 0.32 c -0.332 0.308 -0.851 0.288 -1.159 -0.044 c -0.035 -0.037 -0.065 -0.077 -0.091 -0.118 c -0.109 0.063 -0.235 0.103 -0.371 0.109 c -0.452 0.021 -0.836 -0.327 -0.859 -0.779 c -0.002 -0.051 0 -0.101 0.006 -0.149 c -0.125 -0.021 -0.246 -0.072 -0.354 -0.154 c -0.361 -0.273 -0.431 -0.788 -0.158 -1.149 c 0.031 -0.04 0.065 -0.076 0.101 -0.109 c -0.082 -0.098 -0.141 -0.214 -0.171 -0.346 c -0.1 -0.441 0.177 -0.881 0.618 -0.981 c 0.049 -0.012 0.099 -0.018 0.148 -0.02 c 0 -0.126 0.029 -0.255 0.091 -0.375 c 0.206 -0.403 0.701 -0.562 1.104 -0.354 c 0.044 0.023 0.087 0.05 0.125 0.079 c 0.082 -0.097 0.186 -0.176 0.311 -0.228 c 0.417 -0.176 0.898 0.02 1.074 0.438 c 0.02 0.047 0.035 0.094 0.045 0.142 c 0.125 -0.022 0.255 -0.016 0.385 0.024 C 96.972 26.595 97.214 27.054 97.08 27.486 z" style="stroke: none; stroke-width: 1; stroke-dasharray: none; stroke-linecap: butt; stroke-linejoin: miter; stroke-miterlimit: 10; fill: #FFFFFF; fill-rule: evenodd; opacity: 1;" transform=" matrix(1 0 0 1 0 0) " stroke-linecap="round" />
  <path d="M 100.592 23.08 c -0.015 0.048 -0.034 0.094 -0.057 0.137 c 0.11 0.063 0.207 0.152 0.279 0.267 c 0.245 0.381 0.136 0.889 -0.245 1.134 c -0.042 0.027 -0.086 0.05 -0.132 0.069 c 0.043 0.118 0.06 0.25 0.042 0.383 c -0.057 0.449 -0.466 0.768 -0.917 0.711 c -0.05 -0.007 -0.099 -0.018 -0.145 -0.031 c -0.044 0.118 -0.115 0.228 -0.214 0.32 c -0.332 0.308 -0.852 0.288 -1.159 -0.045 c -0.034 -0.037 -0.065 -0.076 -0.091 -0.117 c -0.109 0.063 -0.234 0.102 -0.37 0.108 c -0.452 0.022 -0.837 -0.326 -0.859 -0.779 c -0.003 -0.05 0 -0.1 0.006 -0.148 c -0.124 -0.021 -0.245 -0.072 -0.353 -0.154 c -0.361 -0.274 -0.431 -0.789 -0.158 -1.149 c 0.031 -0.041 0.065 -0.077 0.101 -0.109 c -0.081 -0.098 -0.142 -0.215 -0.171 -0.346 c -0.1 -0.441 0.177 -0.882 0.618 -0.982 c 0.05 -0.012 0.099 -0.018 0.148 -0.02 c 0 -0.126 0.029 -0.255 0.09 -0.375 c 0.207 -0.402 0.702 -0.561 1.104 -0.353 c 0.045 0.022 0.087 0.049 0.126 0.079 c 0.081 -0.097 0.186 -0.177 0.311 -0.229 c 0.417 -0.175 0.898 0.021 1.074 0.439 c 0.02 0.047 0.035 0.094 0.045 0.141 c 0.124 -0.021 0.255 -0.015 0.384 0.025 C 100.484 22.187 100.726 22.647 100.592 23.08 z" style="stroke: none; stroke-width: 1; stroke-dasharray: none; stroke-linecap: butt; stroke-linejoin: miter; stroke-miterlimit: 10; fill: #FFFFFF; fill-rule: evenodd; opacity: 1;" transform=" matrix(1 0 0 1 0 0) " stroke-linecap="round" />
  <path d="M 105.211 19.913 c -0.016 0.048 -0.034 0.094 -0.057 0.138 c 0.109 0.063 0.206 0.152 0.279 0.267 c 0.246 0.381 0.136 0.888 -0.245 1.133 c -0.043 0.027 -0.086 0.051 -0.132 0.069 c 0.043 0.118 0.06 0.249 0.042 0.383 c -0.057 0.45 -0.467 0.769 -0.916 0.711 c -0.049 -0.006 -0.099 -0.017 -0.146 -0.031 c -0.043 0.118 -0.114 0.229 -0.213 0.321 c -0.332 0.307 -0.852 0.287 -1.159 -0.045 c -0.034 -0.037 -0.064 -0.076 -0.091 -0.117 c -0.109 0.063 -0.235 0.102 -0.37 0.108 c -0.452 0.021 -0.837 -0.327 -0.859 -0.78 c -0.002 -0.049 0 -0.1 0.006 -0.148 c -0.125 -0.021 -0.246 -0.072 -0.353 -0.154 c -0.361 -0.273 -0.431 -0.788 -0.158 -1.148 c 0.031 -0.041 0.064 -0.077 0.101 -0.11 c -0.081 -0.097 -0.141 -0.214 -0.172 -0.345 c -0.1 -0.442 0.177 -0.882 0.619 -0.982 c 0.049 -0.012 0.099 -0.018 0.147 -0.02 c 0 -0.126 0.028 -0.255 0.091 -0.375 c 0.207 -0.402 0.701 -0.562 1.104 -0.354 c 0.045 0.022 0.087 0.05 0.126 0.079 c 0.081 -0.097 0.186 -0.176 0.31 -0.229 c 0.418 -0.175 0.898 0.021 1.074 0.438 c 0.019 0.047 0.034 0.094 0.045 0.142 c 0.124 -0.023 0.255 -0.016 0.385 0.025 C 105.102 19.02 105.345 19.48 105.211 19.913 z" style="stroke: none; stroke-width: 1; stroke-dasharray: none; stroke-linecap: butt; stroke-linejoin: miter; stroke-miterlimit: 10; fill: #FFFFFF; fill-rule: evenodd; opacity: 1;" transform=" matrix(1 0 0 1 0 0) " stroke-linecap="round" />
  <path d="M 111.687 18.416 c 0.045 0.023 0.091 0.042 0.138 0.057 c -0.031 0.122 -0.036 0.253 -0.005 0.386 c 0.1 0.441 0.539 0.718 0.981 0.617 c 0.049 -0.011 0.096 -0.026 0.141 -0.046 c 0.055 0.114 0.136 0.218 0.244 0.299 c 0.361 0.274 0.875 0.204 1.149 -0.157 c 0.031 -0.04 0.058 -0.082 0.08 -0.126 c 0.114 0.053 0.243 0.079 0.378 0.073 c 0.452 -0.022 0.802 -0.407 0.779 -0.86 c -0.002 -0.05 -0.009 -0.099 -0.021 -0.147 c 0.122 -0.033 0.238 -0.096 0.337 -0.188 c 0.332 -0.309 0.352 -0.827 0.044 -1.159 c -0.034 -0.037 -0.071 -0.07 -0.11 -0.1 c 0.071 -0.104 0.12 -0.226 0.137 -0.36 c 0.057 -0.45 -0.261 -0.86 -0.711 -0.917 c -0.05 -0.007 -0.1 -0.008 -0.149 -0.005 c -0.012 -0.126 -0.054 -0.251 -0.127 -0.365 c -0.246 -0.381 -0.753 -0.49 -1.133 -0.245 c -0.043 0.028 -0.082 0.059 -0.118 0.092 c -0.09 -0.088 -0.203 -0.157 -0.331 -0.197 c -0.433 -0.134 -0.892 0.108 -1.026 0.541 c -0.015 0.048 -0.025 0.097 -0.031 0.146 c -0.126 -0.01 -0.256 0.01 -0.381 0.061 c -0.417 0.176 -0.614 0.656 -0.438 1.074 c 0.019 0.047 0.043 0.091 0.069 0.132 c -0.103 0.073 -0.19 0.171 -0.252 0.291 C 111.125 17.716 111.285 18.21 111.687 18.416 z" style="stroke: none; stroke-width: 1; stroke-dasharray: none; stroke-linecap: butt; stroke-linejoin: miter; stroke-miterlimit: 10; fill: #FFFFFF; fill-rule: evenodd; opacity: 1;" transform=" matrix(1 0 0 1 0 0) " stroke-linecap="round" />
  <path d="M 106.193 19.5 c 0.045 0.023 0.091 0.042 0.138 0.056 c -0.032 0.123 -0.035 0.254 -0.005 0.387 c 0.1 0.441 0.54 0.718 0.981 0.617 c 0.049 -0.011 0.096 -0.026 0.142 -0.045 c 0.054 0.113 0.136 0.217 0.244 0.298 c 0.361 0.274 0.875 0.204 1.149 -0.157 c 0.031 -0.04 0.058 -0.082 0.079 -0.126 c 0.115 0.052 0.244 0.079 0.379 0.072 c 0.452 -0.023 0.801 -0.407 0.778 -0.858 c -0.002 -0.051 -0.009 -0.101 -0.02 -0.149 c 0.121 -0.033 0.237 -0.096 0.336 -0.188 c 0.332 -0.308 0.352 -0.827 0.045 -1.159 c -0.035 -0.038 -0.071 -0.07 -0.111 -0.1 c 0.072 -0.104 0.12 -0.227 0.137 -0.359 c 0.057 -0.45 -0.262 -0.86 -0.711 -0.918 c -0.05 -0.006 -0.1 -0.008 -0.148 -0.004 c -0.012 -0.127 -0.054 -0.251 -0.127 -0.365 c -0.246 -0.381 -0.753 -0.49 -1.134 -0.245 c -0.042 0.027 -0.081 0.059 -0.117 0.092 c -0.09 -0.089 -0.203 -0.157 -0.332 -0.197 c -0.432 -0.134 -0.892 0.108 -1.025 0.541 c -0.016 0.048 -0.025 0.097 -0.031 0.146 c -0.127 -0.01 -0.256 0.01 -0.38 0.061 c -0.418 0.175 -0.614 0.656 -0.439 1.073 c 0.02 0.047 0.043 0.091 0.07 0.132 c -0.103 0.073 -0.19 0.172 -0.252 0.292 C 105.632 18.799 105.791 19.293 106.193 19.5 z" style="stroke: none; stroke-width: 1; stroke-dasharray: none; stroke-linecap: butt; stroke-linejoin: miter; stroke-miterlimit: 10; fill: #FFFFFF; fill-rule: evenodd; opacity: 1;" transform=" matrix(1 0 0 1 0 0) " stroke-linecap="round" />
  <ellipse cx="113.775" cy="37.472" rx="19.555" ry="20.202" style="stroke: none; stroke-width: 1; stroke-dasharray: none; stroke-linecap: butt; stroke-linejoin: miter; stroke-miterlimit: 10; fill: #FFD8B8; fill-rule: evenodd; opacity: 1;" transform=" matrix(0.2434 -0.9699 0.9699 0.2434 49.7441 138.7087) "/>
  <path d="M 105.59 74.917 c 1.387 -0.356 9.081 -12.007 15.565 -11.421 c 0.898 1.806 1.585 3.801 1.87 5.772 l 3.769 20.827 l -3.767 1.863 l -7.857 2.689 L 105.59 74.917 z" style="stroke: none; stroke-width: 1; stroke-dasharray: none; stroke-linecap: butt; stroke-linejoin: miter; stroke-miterlimit: 10; fill: #f0b8cf; fill-rule: evenodd; opacity: 1;" transform=" matrix(1 0 0 1 0 0) " stroke-linecap="round" />
  <ellipse cx="58.242000000000004" cy="154.088" rx="4.212" ry="8.388" style="stroke: none; stroke-width: 1; stroke-dasharray: none; stroke-linecap: butt; stroke-linejoin: miter; stroke-miterlimit: 10; fill: #FFFFFF; fill-rule: evenodd; opacity: 1;" transform=" matrix(-0.2512 -0.9679 0.9679 -0.2512 -76.2835 249.1662) "/>
  <path d="M 131.405 28.224 c -5.305 -2.037 -24.704 10.379 -32.525 22.232 c -4.36 -4.718 -6.341 -11.351 -4.698 -17.901 c 2.628 -10.475 13.531 -16.767 24.354 -14.051 C 124.23 19.933 128.766 23.571 131.405 28.224 z" style="stroke: none; stroke-width: 1; stroke-dasharray: none; stroke-linecap: butt; stroke-linejoin: miter; stroke-miterlimit: 10; fill: #91613A; fill-rule: evenodd; opacity: 1;" transform=" matrix(1 0 0 1 0 0) " stroke-linecap="round" />
  <ellipse cx="107.911" cy="39.696999999999996" rx="5.761" ry="3.687" style="stroke: none; stroke-width: 1; stroke-dasharray: none; stroke-linecap: butt; stroke-linejoin: miter; stroke-miterlimit: 10; fill: #FFD8B8; fill-rule: evenodd; opacity: 1;" transform=" matrix(0.0181 -0.9998 0.9998 0.0181 66.2653 146.8731) "/>
  <path d="M 109.264 67.143 c -0.553 -25.741 14.879 -39.269 22.35 -38.88 C 121.931 23.393 105.09 37.753 109.264 67.143 z" style="stroke: none; stroke-width: 1; stroke-dasharray: none; stroke-linecap: butt; stroke-linejoin: miter; stroke-miterlimit: 10; fill: #91613A; fill-rule: evenodd; opacity: 1;" transform=" matrix(1 0 0 1 0 0) " stroke-linecap="round" />
  <path d="M 104.746 0.572 C 89 22.212 84.985 45.71 90.627 73.836 c -18.708 3.636 -31.505 2.062 -44.893 -7.406 C 50.617 40.688 70.468 -5.672 104.746 0.572 z" style="stroke: none; stroke-width: 1; stroke-dasharray: none; stroke-linecap: butt; stroke-linejoin: miter; stroke-miterlimit: 10; fill: #edc5d6; fill-rule: evenodd; opacity: 1;" transform=" matrix(1 0 0 1 0 0) " stroke-linecap="round" />
  <ellipse cx="128.127" cy="41.11" rx="2.467" ry="1.41" style="stroke: none; stroke-width: 1; stroke-dasharray: none; stroke-linecap: butt; stroke-linejoin: miter; stroke-miterlimit: 10; fill: #666666; fill-rule: evenodd; opacity: 1;" transform=" matrix(0.2433 -0.9699 0.9699 0.2433 57.0813 155.3786) "/>
  <path d="M 127.958 51.63 c -2.081 -1.221 -4.578 -3.048 -6.094 -4.523 c 1.113 2.313 3.024 4.118 5.241 5.265 C 127.5 52.03 127.651 51.908 127.958 51.63 z" style="stroke: none; stroke-width: 1; stroke-dasharray: none; stroke-linecap: butt; stroke-linejoin: miter; stroke-miterlimit: 10; fill: #E7B791; fill-rule: evenodd; opacity: 1;" transform=" matrix(1 0 0 1 0 0) " stroke-linecap="round" />
  <ellipse cx="35.141999999999996" cy="121.417" rx="4.212" ry="8.387" style="stroke: none; stroke-width: 1; stroke-dasharray: none; stroke-linecap: butt; stroke-linejoin: miter; stroke-miterlimit: 10; fill: #FFFFFF; fill-rule: evenodd; opacity: 1;" transform=" matrix(0.1218 -0.9926 0.9926 0.1218 -89.6439 141.5164) "/>
  <path d="M 125.884 86.774 c 3.626 7.996 -12.387 37.353 -14.799 42.311 c -4.379 9.002 -17.239 30.666 -17.341 39.286 c -0.101 8.62 -6.535 6.4 -10.262 1 c -3.506 -5.081 -6.249 -7.826 -9.939 -8.953 c -5.276 -1.611 -6.936 -3.983 -10.522 -9.166 c -3.339 -4.825 -5.785 -7.939 -12.221 -12.722 c -5.048 -3.75 -6.558 -6.875 -7.329 -10.213 c -1.11 -4.813 -3.058 -6.204 -7.563 -10.198 c -4.505 -3.994 -6.844 -10.699 1.76 -10.16 c 8.604 0.54 41.406 -14.329 57.644 -12.478 c -2.629 -8.971 3.538 -13.277 11.769 -14.594 c 4.389 -0.701 6.619 -0.93 7.979 -1.404 L 125.884 86.774 z" style="stroke: none; stroke-width: 1; stroke-dasharray: none; stroke-linecap: butt; stroke-linejoin: miter; stroke-miterlimit: 10; fill: #f0b8cf; fill-rule: evenodd; opacity: 1;" transform=" matrix(1 0 0 1 0 0) " stroke-linecap="round" />
  <path d="M 43.869 129.784 c -0.155 -0.486 -0.284 -0.975 -0.398 -1.467 c -1.046 -4.533 -2.834 -6.031 -6.803 -9.527 c 10.25 -1.85 38.732 -13 49.74 -19.97 C 76.617 109.794 52.583 125.259 43.869 129.784 z" style="stroke: none; stroke-width: 1; stroke-dasharray: none; stroke-linecap: butt; stroke-linejoin: miter; stroke-miterlimit: 10; fill: #FFE0E9; fill-rule: evenodd; opacity: 1;" transform=" matrix(1 0 0 1 0 0) " stroke-linecap="round" />
  <path d="M 82.939 168.596 c -3.253 -4.587 -5.9 -7.109 -9.396 -8.178 c -0.261 -0.08 -0.512 -0.161 -0.756 -0.245 c 5.441 -8.66 22.292 -30.872 33.756 -39.661 C 98.783 130.96 85.563 158.487 82.939 168.596 z" style="stroke: none; stroke-width: 1; stroke-dasharray: none; stroke-linecap: butt; stroke-linejoin: miter; stroke-miterlimit: 10; fill: #FFE0E9; fill-rule: evenodd; opacity: 1;" transform=" matrix(1 0 0 1 0 0) " stroke-linecap="round" />
  <path d="M 62.624 150.683 c -2.715 -3.892 -4.952 -6.701 -9.49 -10.352 c 13.543 -7.475 37.707 -25.729 43.57 -30.877 C 91.123 114.929 71.062 137.741 62.624 150.683 z" style="stroke: none; stroke-width: 1; stroke-dasharray: none; stroke-linecap: butt; stroke-linejoin: miter; stroke-miterlimit: 10; fill: #FFE0E9; fill-rule: evenodd; opacity: 1;" transform=" matrix(1 0 0 1 0 0) " stroke-linecap="round" />
  <path d="M 180.259 62.632 c -12.593 -12.963 -44.723 -7.042 -39.512 -27.826 c 5.542 7.521 8.123 5.316 17.47 6.125 C 167.644 41.745 178.702 47.677 180.259 62.632 z" style="stroke: none; stroke-width: 1; stroke-dasharray: none; stroke-linecap: butt; stroke-linejoin: miter; stroke-miterlimit: 10; fill: #91613A; fill-rule: evenodd; opacity: 1;" transform=" matrix(1 0 0 1 0 0) " stroke-linecap="round" />
  <path d="M 180.773 63.659 c -10.26 -14.877 -42.927 -14.386 -34.33 -34.014 c 4.213 8.34 7.125 6.594 16.207 8.947 C 171.81 40.965 181.726 48.654 180.773 63.659 z" style="stroke: none; stroke-width: 1; stroke-dasharray: none; stroke-linecap: butt; stroke-linejoin: miter; stroke-miterlimit: 10; fill: #91613A; fill-rule: evenodd; opacity: 1;" transform=" matrix(1 0 0 1 0 0) " stroke-linecap="round" />
  <polygon points="116.31,170.24 118.85,150.17 120.72,137.44 122.05,127.8 138.66,131.59 129.17,170.34 " style="stroke: none; stroke-width: 1; stroke-dasharray: none; stroke-linecap: butt; stroke-linejoin: miter; stroke-miterlimit: 10; fill: #323232; fill-rule: evenodd; opacity: 1;" transform="  matrix(1 0 0 1 0 0) "/>
  <polygon points="121.33,133.19 121.54,133.22 120.72,137.44 120.72,137.44 " style="stroke: none; stroke-width: 1; stroke-dasharray: none; stroke-linecap: butt; stroke-linejoin: miter; stroke-miterlimit: 10; fill: #323232; fill-rule: evenodd; opacity: 1;" transform="  matrix(1 0 0 1 0 0) "/>
  <path d="M 133.759 204.808 l -17.451 -34.564 l 12.409 -3.288 l 13.243 34.25 C 139.226 202.407 136.492 203.607 133.759 204.808 z" style="stroke: none; stroke-width: 1; stroke-dasharray: none; stroke-linecap: butt; stroke-linejoin: miter; stroke-miterlimit: 10; fill: #323232; fill-rule: evenodd; opacity: 1;" transform=" matrix(1 0 0 1 0 0) " stroke-linecap="round" />
  <ellipse cx="133.849" cy="205.617" rx="4.619" ry="9.197" style="stroke: none; stroke-width: 1; stroke-dasharray: none; stroke-linecap: butt; stroke-linejoin: miter; stroke-miterlimit: 10; fill: #1A1A1A; fill-rule: evenodd; opacity: 1;" transform=" matrix(-0.4021 -0.9156 0.9156 -0.4021 -0.5926 410.8521) "/>
  <rect x="153.34" y="81.24" rx="0" ry="0" width="10.7" height="5.66" style="stroke: none; stroke-width: 1; stroke-dasharray: none; stroke-linecap: butt; stroke-linejoin: miter; stroke-miterlimit: 10; fill: #FFFFFF; fill-rule: evenodd; opacity: 1;" transform=" matrix(-0.9078 -0.4194 0.4194 -0.9078 267.4908 226.9404) "/>
  <polygon points="124.14,123.24 141.56,131.29 140.48,136.32 122.05,127.8 " style="stroke: none; stroke-width: 1; stroke-dasharray: none; stroke-linecap: butt; stroke-linejoin: miter; stroke-miterlimit: 10; fill: #1A1A1A; fill-rule: evenodd; opacity: 1;" transform="  matrix(1 0 0 1 0 0) "/>
  <path d="M 158.199 82.759 c -9.249 17.025 -17.373 25.79 -28.071 28.333 l 4.68 -9.33 l 16.301 -16.164 l 3.915 -6.341 L 158.199 82.759 z" style="stroke: none; stroke-width: 1; stroke-dasharray: none; stroke-linecap: butt; stroke-linejoin: miter; stroke-miterlimit: 10; fill: #FFFFFF; fill-rule: evenodd; opacity: 1;" transform=" matrix(1 0 0 1 0 0) " stroke-linecap="round" />
  <path d="M 152.686 83.112 c 0.752 -0.404 3.101 -2.113 3.042 -1.405 c -0.081 0.975 -2.435 5.597 -3.175 6.235 c -0.537 0.465 -0.537 -2.439 -0.653 -3.286 C 151.983 84.183 152.352 83.458 152.686 83.112 z" style="stroke: none; stroke-width: 1; stroke-dasharray: none; stroke-linecap: butt; stroke-linejoin: miter; stroke-miterlimit: 10; fill: #212E36; fill-rule: evenodd; opacity: 1;" transform=" matrix(1 0 0 1 0 0) " stroke-linecap="round" />
  <path d="M 152.191 82.404 l 0.54 0.275 c 0.138 0.07 0.194 0.241 0.123 0.38 l -0.898 1.764 c -0.071 0.139 -0.241 0.194 -0.38 0.124 l -0.54 -0.275 c -0.139 -0.07 -0.194 -0.241 -0.124 -0.38 l 0.898 -1.764 C 151.882 82.39 152.053 82.334 152.191 82.404 z" style="stroke: none; stroke-width: 1; stroke-dasharray: none; stroke-linecap: butt; stroke-linejoin: miter; stroke-miterlimit: 10; fill: #405059; fill-rule: evenodd; opacity: 1;" transform=" matrix(1 0 0 1 0 0) " stroke-linecap="round" />
  <polygon points="141.77,134.72 144.68,123.91 163.86,85.73 155.78,83.96 132.19,106.89 122.9,125.94 " style="stroke: none; stroke-width: 1; stroke-dasharray: none; stroke-linecap: butt; stroke-linejoin: miter; stroke-miterlimit: 10; fill: #323232; fill-rule: evenodd; opacity: 1;" transform="  matrix(1 0 0 1 0 0) "/>
  <path d="M 152.72 87.878 c -12.729 4.424 -32.194 7.85 -48.87 6.082 l -0.387 4.582 c 15.317 3.721 37.813 3.672 47.995 1.41 C 163.619 97.25 165.558 83.417 152.72 87.878 z" style="stroke: none; stroke-width: 1; stroke-dasharray: none; stroke-linecap: butt; stroke-linejoin: miter; stroke-miterlimit: 10; fill: #1A1A1A; fill-rule: evenodd; opacity: 1;" transform=" matrix(1 0 0 1 0 0) " stroke-linecap="round" />
  <path d="M 101.422 90.794 c -1.436 -0.883 -2.287 -0.453 -2.517 0.717 c -1.944 -1.567 -4.562 -1.184 -5.248 -0.067 c -1.336 2.173 -0.024 5.406 2.929 7.221 c 2.953 1.815 6.429 1.524 7.765 -0.649 C 105.686 95.841 104.375 92.608 101.422 90.794 z" style="stroke: none; stroke-width: 1; stroke-dasharray: none; stroke-linecap: butt; stroke-linejoin: miter; stroke-miterlimit: 10; fill: #FFD8B8; fill-rule: evenodd; opacity: 1;" transform=" matrix(1 0 0 1 0 0) " stroke-linecap="round" />
  <ellipse cx="162.31300000000002" cy="61.602000000000004" rx="21.443" ry="22.152" style="stroke: none; stroke-width: 1; stroke-dasharray: none; stroke-linecap: butt; stroke-linejoin: miter; stroke-miterlimit: 10; fill: #FFD8B8; fill-rule: evenodd; opacity: 1;" transform=" matrix(0.2215 -0.9752 0.9752 0.2215 66.2837 206.2372) "/>
  <path d="M 149.652 43.821 c 2.123 15.702 27.617 27.347 20.789 37.869 c 6.604 -2.451 11.831 -7.958 13.47 -15.179 c 2.624 -11.548 -4.922 -23.106 -16.852 -25.817 C 160.78 39.268 154.54 40.578 149.652 43.821 z" style="stroke: none; stroke-width: 1; stroke-dasharray: none; stroke-linecap: butt; stroke-linejoin: miter; stroke-miterlimit: 10; fill: #91613A; fill-rule: evenodd; opacity: 1;" transform=" matrix(1 0 0 1 0 0) " stroke-linecap="round" />
  <ellipse cx="146.47500000000002" cy="58.046" rx="2.705" ry="1.546" style="stroke: none; stroke-width: 1; stroke-dasharray: none; stroke-linecap: butt; stroke-linejoin: miter; stroke-miterlimit: 10; fill: #323232; fill-rule: evenodd; opacity: 1;" transform=" matrix(0.2215 -0.9752 0.9752 0.2215 57.422 188.019) "/>
  <path d="M 141.242 68.016 c 3.368 0.728 6.394 -0.141 8.379 -0.997 c -2.235 1.711 -4.999 2.528 -7.736 2.551 C 141.706 69.237 141.409 68.401 141.242 68.016 z" style="stroke: none; stroke-width: 1; stroke-dasharray: none; stroke-linecap: butt; stroke-linejoin: miter; stroke-miterlimit: 10; fill: #E7B791; fill-rule: evenodd; opacity: 1;" transform=" matrix(1 0 0 1 0 0) " stroke-linecap="round" />
  <ellipse cx="166.937" cy="66.693" rx="6.317" ry="4.043" style="stroke: none; stroke-width: 1; stroke-dasharray: none; stroke-linecap: butt; stroke-linejoin: miter; stroke-miterlimit: 10; fill: #FFD8B8; fill-rule: evenodd; opacity: 1;" transform=" matrix(0.4359 -0.9 0.9 0.4359 34.151 187.8665) "/>
  <path d="M 144.838 47.755 c 4.363 2.455 8.32 5.197 12.618 10.533 c 4.724 5.865 22.419 -12.246 14.086 -16.228 C 163.211 38.079 152.868 35.29 144.838 47.755 z" style="stroke: none; stroke-width: 1; stroke-dasharray: none; stroke-linecap: butt; stroke-linejoin: miter; stroke-miterlimit: 10; fill: #91613A; fill-rule: evenodd; opacity: 1;" transform=" matrix(1 0 0 1 0 0) " stroke-linecap="round" />
  <path d="M 140.55 65.195 c 3.845 -0.077 10.455 -0.48 11.322 1.646 c 0.866 2.126 -0.54 9.981 2.198 12.128 c 2.738 2.145 6.577 -0.355 7.257 -5.914 c 0.681 -5.559 1.727 -8.526 -0.752 -11.487 c -2.479 -2.961 4.248 -7.193 3.604 -2.814 c -0.645 4.378 -1.157 20.866 -4.648 23.065 c -2.031 1.28 -8.25 -0.295 -11.929 -3.318 c -1.725 -1.418 -3.409 -3.263 -4.395 -6.432 c 0.694 1.01 5.396 5.494 7.035 5.393 c 1.559 -0.097 1.44 -8.409 0.368 -10.145 c -1.072 -1.735 -9.086 -0.805 -9.774 -0.91 C 140.146 66.302 140.099 65.204 140.55 65.195 z" style="stroke: none; stroke-width: 1; stroke-dasharray: none; stroke-linecap: butt; stroke-linejoin: miter; stroke-miterlimit: 10; fill: #91613A; fill-rule: evenodd; opacity: 1;" transform=" matrix(1 0 0 1 0 0) " stroke-linecap="round" />
  <path d="M 114.07 61.929 c 9.233 8.109 24.499 17.69 39.193 21.928 l -1.247 4.003 c -14.218 -2.119 -33.205 -9.89 -41.029 -15.298 C 101.642 66.101 104.756 53.748 114.07 61.929 z" style="stroke: none; stroke-width: 1; stroke-dasharray: none; stroke-linecap: butt; stroke-linejoin: miter; stroke-miterlimit: 10; fill: #FFD8B8; fill-rule: evenodd; opacity: 1;" transform=" matrix(1 0 0 1 0 0) " stroke-linecap="round" />
  <path d="M 158.717 80.98 c -1.574 -0.604 -2.332 -0.025 -2.342 1.167 c -2.199 -1.184 -4.702 -0.326 -5.171 0.897 c -0.914 2.382 0.968 5.318 4.204 6.56 c 3.236 1.242 6.6 0.318 7.514 -2.063 C 163.835 85.159 161.953 82.223 158.717 80.98 z" style="stroke: none; stroke-width: 1; stroke-dasharray: none; stroke-linecap: butt; stroke-linejoin: miter; stroke-miterlimit: 10; fill: #FFD8B8; fill-rule: evenodd; opacity: 1;" transform=" matrix(1 0 0 1 0 0) " stroke-linecap="round" />
  <path d="M 140.228 160.094 c -5.675 -4.738 -8.5 -19.4 -7.817 -27.505 l 12.266 -8.681 C 144.678 123.908 142.932 149.278 140.228 160.094 z" style="stroke: none; stroke-width: 1; stroke-dasharray: none; stroke-linecap: butt; stroke-linejoin: miter; stroke-miterlimit: 10; fill: #1A1A1A; fill-rule: evenodd; opacity: 1;" transform=" matrix(1 0 0 1 0 0) " stroke-linecap="round" />
  <path d="M 134.306 131.247 l 10.371 -7.339 c 0 0 -1.359 21.648 -3.809 33.277 C 135.773 153.271 134.216 138.616 134.306 131.247 z" style="stroke: none; stroke-width: 1; stroke-dasharray: none; stroke-linecap: butt; stroke-linejoin: miter; stroke-miterlimit: 10; fill: #323232; fill-rule: evenodd; opacity: 1;" transform=" matrix(1 0 0 1 0 0) " stroke-linecap="round" />
</g>
  <g transform="translate(48.36 55.93) scale(0.6 0.6)">
   <text font-family="Amerika Sans" font-size="40" font-weight="normal" style="stroke: none; stroke-width: 1; stroke-dasharray: none; stroke-linecap: butt; stroke-linejoin: miter; stroke-miterlimit: 10; fill: #f5a9f5; fill-rule: nonzero; opacity: 1;" ><tspan x="-63.44" y="8.98" style="stroke: none; stroke-width: 0; stroke-dasharray: none; stroke-linecap: butt; stroke-linejoin: miter; stroke-miterlimit: 4; fill: #f5a9f5; fill-rule: ; opacity: 1;">D</tspan><tspan x="-37.4" y="8.98" style="stroke: none; stroke-width: 0; stroke-dasharray: none; stroke-linecap: butt; stroke-linejoin: miter; stroke-miterlimit: 4; fill: #f5a9f5; fill-rule: ; opacity: 1;">r</tspan><tspan x="-21.64" y="8.98" style="stroke: none; stroke-width: 0; stroke-dasharray: none; stroke-linecap: butt; stroke-linejoin: miter; stroke-miterlimit: 4; fill: #f5a9f5; fill-rule: ; opacity: 1;">e</tspan><tspan x="1.08" y="8.98" style="stroke: none; stroke-width: 0; stroke-dasharray: none; stroke-linecap: butt; stroke-linejoin: miter; stroke-miterlimit: 4; fill: #f5a9f5; fill-rule: ; opacity: 1;">a</tspan><tspan x="24.92" y="8.98" style="stroke: none; stroke-width: 0; stroke-dasharray: none; stroke-linecap: butt; stroke-linejoin: miter; stroke-miterlimit: 4; fill: #f5a9f5; fill-rule: ; opacity: 1;">m</tspan></text>
 </g>
</svg>